# xmcd
#
# Track frame offsets:
# 150
# 50440
# 98731
# 170702
# 212966
# 271189
#
# Disc length: 3960 seconds
#
# Revision: 0
# Processed by: cddbd v1.4PL0 Copyright (c) Steve Scherf et al.
# Submitted via: Audion 3.0.2 (http://www.panic.com/audion/)
#
DISCID=520f7606
DTITLE=friedhelm busch - greife nie in ein fallendes messer
DYEAR=1900
DGENRE=
TTITLE0=keine chance ohne risiko
TTITLE1=der aktionär ist dumm und frech
TTITLE2=haussen sterben in der euphorie
TTITLE3=an der börse braucht man einen langen atem
TTITLE4=steigende zinsen sind gift für aktien
TTITLE5=weiter hörbücher aus dem campus verlag
EXTD=
EXTT0=
EXTT1=
EXTT2=
EXTT3=
EXTT4=
EXTT5=
PLAYORDER=
